<?xml version="1.0" encoding="UTF-8" standalone="no"?>
<svg
   width="500"
   height="500"
   version="1.1"
   id="svg2"
   sodipodi:docname="method-draw-image.svg"
   inkscape:version="1.3-dev (fcdb756d0, 2022-12-30)"
   xmlns:inkscape="http://www.inkscape.org/namespaces/inkscape"
   xmlns:sodipodi="http://sodipodi.sourceforge.net/DTD/sodipodi-0.dtd"
   xmlns="http://www.w3.org/2000/svg"
   xmlns:svg="http://www.w3.org/2000/svg">
  <defs
     id="defs2" />
  <sodipodi:namedview
     id="namedview2"
     pagecolor="#ffffff"
     bordercolor="#000000"
     borderopacity="0.25"
     inkscape:showpageshadow="2"
     inkscape:pageopacity="0.0"
     inkscape:pagecheckerboard="0"
     inkscape:deskcolor="#d1d1d1"
     inkscape:zoom="0.4469697"
     inkscape:cx="27.966102"
     inkscape:cy="278.54237"
     inkscape:window-width="1280"
     inkscape:window-height="961"
     inkscape:window-x="-8"
     inkscape:window-y="-8"
     inkscape:window-maximized="1"
     inkscape:current-layer="svg2" />
  <g
     id="g2"
     transform="matrix(1.9824199,0,0,1.8705468,-245.87669,-209.50124)"
     inkscape:label="g2">
    <title
       id="title2">Layer 1</title>
    <path
       stroke="null"
       id="svg_1"
       fill="#000000"
       d="m 328,112 c 6.38011,0.48152 6.38011,0.48152 8.91369,2.60063 1.4789,3.2665 1.50106,6.27169 1.46726,9.78931 0.005,0.74688 0.009,1.49376 0.0142,2.26327 0.012,2.50469 0.002,5.00884 -0.007,7.51354 0.004,1.79565 0.009,3.59129 0.0159,5.38693 0.0137,4.88304 0.008,9.7659 -10e-4,14.64894 -0.008,5.12101 -5.5e-4,10.242 0.004,15.36301 0.005,8.6143 -0.002,17.22853 -0.016,25.84282 -0.0163,9.92342 -0.0111,19.84665 0.005,29.77006 0.0137,8.53788 0.0155,17.07569 0.008,25.61357 -0.005,5.09054 -0.005,10.18099 0.005,15.27152 0.009,4.80091 0.002,9.60159 -0.0147,14.40248 -0.004,1.74893 -0.003,3.49788 0.004,5.24681 0.0889,25.61963 -5.17023,48.11744 -23.58549,67.03711 -21.1521,20.86079 -50.82024,26.64864 -79.49683,26.55029 C 209.60866,378.90652 183.34615,373.05117 164,355 c -0.66,-0.99 -1.32,-1.98 -2,-3 3.45875,1.32323 6.78199,2.84022 10.11035,4.46191 30.64449,14.80755 68.26512,16.17994 100.39282,5.07154 20.43987,-7.52929 37.07144,-19.9482 46.80933,-39.90845 4.93502,-11.40539 7.82803,-22.93513 7.84572,-35.37621 0.005,-0.74918 0.01,-1.49837 0.015,-2.27026 0.0153,-2.49341 0.0237,-4.9868 0.0321,-7.48024 0.01,-1.79411 0.0196,-3.58823 0.03,-5.38234 0.027,-4.85892 0.048,-9.71785 0.068,-14.5768 0.0219,-5.08225 0.0493,-10.16446 0.0761,-15.24668 0.0499,-9.61873 0.0948,-19.23748 0.13802,-28.85624 0.0494,-10.95281 0.10433,-21.9056 0.15968,-32.85838 C 327.7908,157.05193 327.89766,134.52598 328,112 Z" />
    <path
       id="svg_2"
       fill="#000000"
       d="m 163,112 c 3.4375,0.25 3.4375,0.25 7,1 2.39294,3.58941 2.2818,6.14662 2.25829,10.28987 0.004,0.74814 0.007,1.49629 0.0111,2.2671 0.01,2.51469 0.006,5.02916 0.002,7.54386 0.004,1.80037 0.01,3.60073 0.0158,5.40109 0.0115,3.88288 0.017,7.76571 0.0179,11.6486 0.002,6.14964 0.02,12.29917 0.0408,18.44877 0.0492,15.28507 0.08,30.57017 0.1013,45.8553 0.0166,11.85975 0.0395,23.7194 0.083,35.57909 0.0217,6.1019 0.0298,12.20362 0.0276,18.30556 0.002,3.81601 0.0158,7.6319 0.0332,11.44787 0.006,1.75663 0.006,3.5133 0.001,5.26994 -0.0354,13.74148 1.69263,25.91933 6.40808,38.94295 -9.83212,-7.47241 -14.5327,-17.12107 -16.526,-29.18293 -0.47793,-3.84873 -0.59986,-7.53251 -0.60098,-11.40969 -0.002,-0.73215 -0.003,-1.4643 -0.005,-2.21863 -0.004,-2.43582 -8.4e-4,-4.87158 0.002,-7.3074 -0.001,-1.75308 -0.003,-3.50617 -0.005,-5.25925 -0.005,-4.74744 -0.003,-9.49486 3.7e-4,-14.2423 0.003,-4.96699 1.9e-4,-9.93397 -0.001,-14.90095 -0.002,-8.33394 5.7e-4,-16.66786 0.005,-25.0018 0.005,-9.64711 0.004,-19.2942 -0.002,-28.94131 -0.005,-8.27949 -0.005,-16.55898 -0.003,-24.83848 0.002,-4.94687 0.002,-9.89374 -0.002,-14.84061 -0.003,-4.64406 -9e-4,-9.28809 0.005,-13.93214 0.001,-1.7089 9.3e-4,-3.41779 -0.001,-5.12669 -0.003,-2.3224 6.6e-4,-4.64471 0.006,-6.9671 3.7e-4,-1.30262 7.5e-4,-2.60524 0.001,-3.94733 C 162,113 162,113 163,112 Z" />
  </g>
</svg>
